<svg xmlns="http://www.w3.org/2000/svg" class="UctUV d H0 hzzSG" viewBox="0 0 128 24" width="68" height="12" aria-label=""><path d="M 12 0C5.388 0 0 5.388 0 12s5.388 12 12 12 12-5.38 12-12c0-6.612-5.38-12-12-12z" transform=""/><path d="M 12 0C5.388 0 0 5.388 0 12s5.388 12 12 12 12-5.38 12-12c0-6.612-5.38-12-12-12z" transform="translate(26 0)"/><path d="M 12 0C5.388 0 0 5.388 0 12s5.388 12 12 12 12-5.38 12-12c0-6.612-5.38-12-12-12z" transform="translate(52 0)"/><path d="M 12 0C5.388 0 0 5.388 0 12s5.388 12 12 12 12-5.38 12-12c0-6.612-5.38-12-12-12z" transform="translate(78 0)"/><path d="M 12 0C5.388 0 0 5.388 0 12s5.388 12 12 12 12-5.38 12-12c0-6.612-5.38-12-12-12z" transform="translate(104 0)"/></svg>